<svg xmlns="http://www.w3.org/2000/svg" width="25.275" height="22.582" viewBox="0 0 25.275 22.582"><defs><style>.a{fill:#d56dbe;}.b{fill:#ffe27b;}</style></defs><path class="a" d="M200.16,265.61" transform="translate(-185.791 -251.746)"/><path class="b" d="M190.773,181.91l3.71,7.055a.257.257,0,0,0,.19.129l8.294,1.131a.248.248,0,0,1,.2.161.227.227,0,0,1-.064.242l-6,5.49a.228.228,0,0,0-.072.21l1.409,7.753a.23.23,0,0,1-.1.232.266.266,0,0,1-.266.017l-7.411-3.665a.268.268,0,0,0-.236,0l-7.416,3.66a.266.266,0,0,1-.266-.017.23.23,0,0,1-.1-.232l1.409-7.753a.228.228,0,0,0-.072-.21l-6-5.49a.227.227,0,0,1-.064-.242.248.248,0,0,1,.2-.161l8.3-1.129a.253.253,0,0,0,.188-.129l3.71-7.055a.26.26,0,0,1,.451,0Z" transform="translate(-177.907 -181.777)"/></svg>