<svg xmlns="http://www.w3.org/2000/svg" width="28.598" height="24.702" viewBox="0 0 28.598 24.702"><defs><style>.a{fill:none;stroke:#fff;stroke-miterlimit:10;}</style></defs><path class="a" d="M191.946,181.917l4.048,7.4a.281.281,0,0,0,.208.135l9.05,1.187a.269.269,0,0,1,.222.169.232.232,0,0,1-.07.254l-6.547,5.761a.233.233,0,0,0-.079.22l1.538,8.135a.237.237,0,0,1-.109.244.3.3,0,0,1-.291.018l-8.087-3.845a.3.3,0,0,0-.258,0l-8.093,3.84a.3.3,0,0,1-.291-.018.237.237,0,0,1-.109-.244l1.538-8.135a.234.234,0,0,0-.079-.22l-6.547-5.761a.232.232,0,0,1-.07-.254.269.269,0,0,1,.222-.169l9.058-1.185a.276.276,0,0,0,.206-.135l4.048-7.4a.289.289,0,0,1,.492,0Z" transform="translate(-177.398 -181.277)"/></svg>